<svg width="24" height="24" viewBox="0 0 24 24" fill="none" xmlns="http://www.w3.org/2000/svg">
<path d="M13.7493 13.7654L14.7331 14.7492L13.7493 13.7654ZM14.7332 16.0209L18.5518 19.8405C18.903 20.1919 19.4726 20.1919 19.824 19.8406C20.1752 19.4894 20.1752 18.9199 19.8241 18.5686L16.0055 14.749C15.6542 14.3976 15.0846 14.3976 14.7333 14.7489C14.3821 15.1002 14.382 15.6696 14.7332 16.0209Z" stroke="white" stroke-linecap="round" stroke-linejoin="round"/>
<path d="M4.1949 8.23653C4.72341 6.26409 6.26409 4.72341 8.23653 4.1949C10.209 3.66636 12.3136 4.2303 13.7575 5.67423C15.2015 7.11819 15.7654 9.22278 15.2369 11.1952C14.7084 13.1677 13.1677 14.7084 11.1952 15.2369C9.22278 15.7654 7.11819 15.2015 5.67423 13.7575C4.2303 12.3136 3.66636 10.209 4.1949 8.23653Z" stroke="white" stroke-linecap="round" stroke-linejoin="round"/>
</svg>
